<?xml version="1.0" encoding="utf-8"?>
<!-- Generator: Adobe Illustrator 24.3.0, SVG Export Plug-In . SVG Version: 6.00 Build 0)  -->
<svg version="1.1" id="Layer_1" xmlns="http://www.w3.org/2000/svg" xmlns:xlink="http://www.w3.org/1999/xlink" x="0px" y="0px"
	 viewBox="0 0 337.9 427.7" style="enable-background:new 0 0 337.9 427.7;" xml:space="preserve">
<style type="text/css">
	.st0{fill:#F1F1F3;}
	.st1{fill:#131B41;}
	.st2{fill:#F3784A;}
	.st3{fill:#FDBE4E;}
	.st4{fill:none;stroke:url(#SVGID_1_);stroke-miterlimit:10;}
	.st5{fill:#FFFFFF;}
	.st6{fill:url(#SVGID_2_);}
	.st7{fill:url(#SVGID_3_);}
	.st8{fill:url(#SVGID_4_);}
	.st9{fill:url(#SVGID_5_);}
	.st10{opacity:0.32;}
</style>
<g>
	<g>
		<path class="st1" d="M337.3,307.4c-0.7-6.4-1.8-13.7-3.5-18.5c0,0-47.7-132.5-48.5-134.6L266.9,97l-17.5-55.5
			c-2.9-9.9-13.8-15.1-23.3-11.1c-8,3.4-12.2,12.2-9.9,20.6l16.5,52.9l14.1,61.6c0.6,2.7-2,5.3-4.6,4.3c-2.9-1.1-5.5-3.5-6.9-6.9
			L213.5,99l-33.9-83.8c-3.8-8.7-13.9-12.7-22.6-9l-3.1,1.3c-8.4,3.6-12.6,13-9.6,21.6l29.6,84.5l19,58.6c0.6,2-0.3,4.2-2.2,5
			c-2.8,1.3-6.7,1.4-9.7,0.1c-0.9-0.4-1.6-1.3-2.1-2.2c-4.9-10.3-34.8-73.1-34.8-73.1l-42.3-91.8C97.9,1.6,88-2.3,79.4,1.4l-3.2,1.3
			c-8.6,3.6-12.8,13.5-9.4,22.2l36.2,93.3l29.6,69.7c1.8,4.3-4.2,8.9-8.2,10.5c-1.7,0.7-3.7,0-4.8-1.5l-31-50.5L34.6,57.2
			c-4.4-7.5-13.7-10.6-21.7-7.2l-2.3,1C1.5,54.8-2.6,65.4,1.7,74.3l45.6,91.9l24,45.7c3.8,7.3,7.4,14.7,10.6,22.3l1.1,2.5l34.2,67.1
			c1.7,4.7-3.3,9.1-7.7,6.8l-35.1-14.3l-41.4-14c-10-3.4-21.5,0.1-26.9,9.2c-6.4,10.7-3,24.1,7.2,30.5L48,343.7c1,0.6,2,1.4,2.9,2.2
			l43.3,37c14.4,12.3,30.7,21.9,48.4,28.5l34.2,12.8c13.1,4.9,27.6,4.6,40.4-0.8l50.5-21.4l19.8-8.4c17.7-7.5,31.9-20.6,40.7-36.9
			C336.5,341.7,339.2,324.4,337.3,307.4z M234.7,333.3c0,5.1-5.9,7.8-9.8,4.6l-34.4-28c-1.1-0.9-2.4-1.3-3.8-1.4l-18.8-0.2
			c-3.3,0-6-2.8-6-6.1l0.4-44.5c0-3.3,2.8-6,6.1-6l18.8,0.2c1.4,0,2.7-0.5,3.8-1.3l34.8-27.8c4-3.2,9.8-0.3,9.8,4.8L234.7,333.3z
			 M256.8,318.3c-1.2,0-2.4-0.5-3.3-1.4s-1.4-2.1-1.4-3.3s0.5-2.4,1.4-3.3c16.5-16.5,16.5-43.3,0-59.7c-1.8-1.8-1.8-4.8,0-6.6
			c0.9-0.9,2.1-1.4,3.3-1.4c1.2,0,2.4,0.5,3.3,1.4c9.7,9.7,15.1,22.7,15.1,36.5c0,13.8-5.4,26.7-15.1,36.5
			C259.2,317.8,258.1,318.3,256.8,318.3z M275.5,332.3c-0.9,0.9-2.1,1.4-3.3,1.4s-2.4-0.5-3.3-1.4s-1.4-2.1-1.4-3.3s0.5-2.4,1.4-3.3
			c12.1-12.1,18.7-28.1,18.7-45.2c0-17.1-6.7-33.1-18.7-45.2c-0.9-0.9-1.4-2.1-1.4-3.3s0.5-2.4,1.4-3.3s2.1-1.4,3.3-1.4
			s2.4,0.5,3.3,1.4c13.8,13.8,21.5,32.2,21.5,51.8C296.9,300,289.3,318.4,275.5,332.3z"/>
	</g>
</g>
</svg>
