<svg id="Layer_1" data-name="Layer 1" xmlns="http://www.w3.org/2000/svg" viewBox="0 0 142.92 82.36"><defs><style>.cls-1{fill:#fff;}</style></defs><path class="cls-1" d="M62.06,4.18H64l3.76,13.27L73,4.18h.38l5.22,13.27L82.42,4.18h1.87L79,22.59h-.34L73.19,8.66,67.62,22.59h-.34Z"/><path class="cls-1" d="M97.69,18.07l1.48.78a8.2,8.2,0,0,1-1.68,2.3,6.76,6.76,0,0,1-2.14,1.34,7.64,7.64,0,0,1-2.7.46,6.5,6.5,0,0,1-5.21-2.19,7.47,7.47,0,0,1-.29-9.56,6.49,6.49,0,0,1,5.4-2.58,6.71,6.71,0,0,1,5.56,2.64,7.4,7.4,0,0,1,1.51,4.66H87.36a5.52,5.52,0,0,0,1.52,3.89,4.82,4.82,0,0,0,3.62,1.52,5.81,5.81,0,0,0,2-.36,5.28,5.28,0,0,0,1.68-1A7.91,7.91,0,0,0,97.69,18.07Zm0-3.66a5.8,5.8,0,0,0-1-2.25,5,5,0,0,0-1.77-1.35,5.48,5.48,0,0,0-2.32-.51,5,5,0,0,0-3.45,1.29,5.84,5.84,0,0,0-1.59,2.82Z"/><path class="cls-1" d="M70.1,27.64h3.56v7H79.8v-7h3.55V46.06H79.8V38H73.66v8.07H70.1Z"/><path class="cls-1" d="M100.83,40.24h-11a3.6,3.6,0,0,0,1.27,2.31,4,4,0,0,0,2.63.86A4.55,4.55,0,0,0,97,42.07l2.88,1.35a6.73,6.73,0,0,1-2.57,2.26,8.1,8.1,0,0,1-3.57.73,7,7,0,0,1-5.22-2,6.87,6.87,0,0,1-2-5.06,7.11,7.11,0,0,1,2-5.18,6.76,6.76,0,0,1,5-2.06,7,7,0,0,1,5.23,2.06,7.42,7.42,0,0,1,2,5.44Zm-3.42-2.69a3.4,3.4,0,0,0-1.34-1.85A3.82,3.82,0,0,0,93.76,35a4.13,4.13,0,0,0-2.51.8A4.52,4.52,0,0,0,90,37.55Z"/><path class="cls-1" d="M113.65,32.44h3.42V46.06h-3.42V44.62a6.66,6.66,0,0,1-2,1.37,5.61,5.61,0,0,1-2.18.42,6.09,6.09,0,0,1-4.57-2A7.16,7.16,0,0,1,103,39.28a7.31,7.31,0,0,1,1.86-5.17,5.92,5.92,0,0,1,4.53-2,5.73,5.73,0,0,1,2.3.46,6.25,6.25,0,0,1,2,1.39Zm-3.6,2.8a3.46,3.46,0,0,0-2.63,1.13,4,4,0,0,0-1,2.87,4.07,4.07,0,0,0,1.07,2.9,3.46,3.46,0,0,0,2.63,1.14,3.52,3.52,0,0,0,2.67-1.12,4.12,4.12,0,0,0,1.06-2.93,4,4,0,0,0-1.06-2.88A3.56,3.56,0,0,0,110.05,35.24Z"/><path class="cls-1" d="M119.72,32.44h2.93v1.71a3.72,3.72,0,0,1,1.26-1.53,3,3,0,0,1,1.73-.53,3.24,3.24,0,0,1,1.39.35L126,35.38a2.35,2.35,0,0,0-1-.3,1.56,1.56,0,0,0-1.33,1,8.8,8.8,0,0,0-.55,3.83v6.17h-3.39Z"/><path class="cls-1" d="M76.43,52.68h2.12l4.71,7.59,4.64-7.59H90l-5.84,9.61v8.8H82.38v-8.8Z"/><path class="cls-1" d="M96.94,57.12a6.75,6.75,0,0,1,5.22,2.28,7.31,7.31,0,0,1-.11,9.91,7.19,7.19,0,0,1-10.24,0,7.31,7.31,0,0,1-.1-9.9A6.76,6.76,0,0,1,96.94,57.12Zm0,1.72a5.06,5.06,0,0,0-3.75,1.61,5.4,5.4,0,0,0-1.58,3.91,5.51,5.51,0,0,0,.72,2.75,5,5,0,0,0,1.94,2,5.46,5.46,0,0,0,5.35,0,5,5,0,0,0,1.93-2,5.51,5.51,0,0,0,.72-2.75,5.4,5.4,0,0,0-1.58-3.91A5.08,5.08,0,0,0,96.93,58.84Z"/><path class="cls-1" d="M107.06,57.47h1.75v6.36a13.47,13.47,0,0,0,.25,3.21,3.63,3.63,0,0,0,1.43,2,4.4,4.4,0,0,0,2.53.72,4.27,4.27,0,0,0,2.49-.7,3.7,3.7,0,0,0,1.41-1.86,12.87,12.87,0,0,0,.27-3.35V57.47H119v6.69a10.5,10.5,0,0,1-.66,4.24,5.07,5.07,0,0,1-2,2.24,6.25,6.25,0,0,1-3.31.81,6.32,6.32,0,0,1-3.33-.81,5,5,0,0,1-2-2.26,11,11,0,0,1-.65-4.35Z"/><path class="cls-1" d="M64.86,57.88a17.2,17.2,0,0,0-.63-3.32l-8.68-24.1L52.25,20.2l-3.12-9.94a3.1,3.1,0,0,0-6,1.7l2.95,9.48,2.52,11a.65.65,0,0,1-.83.77A2.1,2.1,0,0,1,46.58,32L42.69,20.56l-6.07-15a3.09,3.09,0,0,0-4-1.62L32,4.17A3.09,3.09,0,0,0,30.3,8l5.3,15.12L39,33.65a.74.74,0,0,1-.4.9,2.25,2.25,0,0,1-1.73,0,.82.82,0,0,1-.37-.39c-.87-1.85-6.23-13.1-6.23-13.1L22.69,4.63a3.1,3.1,0,0,0-4-1.56l-.57.24a3.1,3.1,0,0,0-1.67,4L22.91,24l5.31,12.47c.32.78-.75,1.6-1.47,1.89a.73.73,0,0,1-.86-.28l-5.55-9-9.69-16a3.09,3.09,0,0,0-3.89-1.29l-.41.17a3.1,3.1,0,0,0-1.58,4.2L12.94,32.6l4.29,8.18c.68,1.31,1.31,2.64,1.89,4l.19.45,6.12,12a1,1,0,0,1-1.38,1.22l-6.29-2.57-7.41-2.51A4.09,4.09,0,0,0,5.52,55a4,4,0,0,0,1.3,5.45l6.23,3.9a3.94,3.94,0,0,1,.53.38l7.75,6.62A28.87,28.87,0,0,0,30,76.49l6.12,2.3a9.79,9.79,0,0,0,7.24-.15l9-3.83L56,73.3a14.65,14.65,0,0,0,8.91-15.42ZM46.48,62.51a1.08,1.08,0,0,1-1.76.83l-6.15-5a1.1,1.1,0,0,0-.67-.24l-3.37,0A1.08,1.08,0,0,1,33.46,57l.07-8a1.08,1.08,0,0,1,1.09-1.07L38,48a1,1,0,0,0,.68-.24l6.23-5a1.08,1.08,0,0,1,1.76.85Zm4-2.5a1,1,0,0,1-1-1,1,1,0,0,1,.3-.73,7.38,7.38,0,0,0,0-10.43,1,1,0,0,1,.73-1.74,1,1,0,0,1,.72.3,9.42,9.42,0,0,1,0,13.32A1,1,0,0,1,50.45,60Zm3.47,2.45a1.06,1.06,0,0,1-.73.3,1,1,0,0,1-.72-.3,1,1,0,0,1-.3-.73,1,1,0,0,1,.3-.72,11.25,11.25,0,0,0,0-15.92,1,1,0,0,1-.3-.73,1,1,0,0,1,.3-.72,1,1,0,0,1,.72-.3,1,1,0,0,1,.73.3,13.33,13.33,0,0,1,0,18.82Z"/><path class="cls-1" d="M124.72,71.08V65.34h2.54a3.49,3.49,0,0,1,1.17.16,1.22,1.22,0,0,1,.63.54,1.57,1.57,0,0,1,.24.87,1.45,1.45,0,0,1-.39,1,2,2,0,0,1-1.22.53,2.5,2.5,0,0,1,.46.28,4.19,4.19,0,0,1,.63.77l1,1.56h-1l-.76-1.19a7.64,7.64,0,0,0-.55-.79,1.57,1.57,0,0,0-.38-.39,1.32,1.32,0,0,0-.35-.15,2,2,0,0,0-.42,0h-.88v2.55Zm.76-3.21h1.63a2.46,2.46,0,0,0,.81-.1.84.84,0,0,0,.45-.35.92.92,0,0,0,.15-.51.87.87,0,0,0-.29-.67,1.37,1.37,0,0,0-.94-.26h-1.81Z"/><path class="cls-1" d="M127.13,73.56a5.44,5.44,0,1,1,5.44-5.43A5.44,5.44,0,0,1,127.13,73.56Zm0-9.87a4.44,4.44,0,1,0,4.44,4.44A4.44,4.44,0,0,0,127.13,63.69Z"/></svg>