<?xml version="1.0" encoding="utf-8"?>
<!-- Generator: Adobe Illustrator 24.3.0, SVG Export Plug-In . SVG Version: 6.00 Build 0)  -->
<svg version="1.1" id="Layer_1" xmlns="http://www.w3.org/2000/svg" xmlns:xlink="http://www.w3.org/1999/xlink" x="0px" y="0px"
	 viewBox="0 0 217.6 43.8" style="enable-background:new 0 0 217.6 43.8;" xml:space="preserve">
<style type="text/css">
	.st0{fill:#F1F1F3;}
	.st1{fill:#131B41;}
	.st2{fill:#F3784A;}
	.st3{fill:#FDBE4E;}
	.st4{fill:none;stroke:url(#SVGID_1_);stroke-miterlimit:10;}
	.st5{fill:#FFFFFF;}
	.st6{fill:url(#SVGID_2_);}
	.st7{fill:url(#SVGID_3_);}
	.st8{fill:url(#SVGID_4_);}
	.st9{fill:url(#SVGID_5_);}
	.st10{opacity:0.32;}
</style>
<g class="st10">
	<path class="st2" d="M907.7-103.5L226.1,607.3c-20.1,21-53.5,21.7-74.5,1.6l0,0c-21-20.1-21.7-53.5-1.6-74.5l681.6-710.8
		c20.1-21,53.5-21.7,74.5-1.6l0,0C927.1-157.9,927.8-124.5,907.7-103.5z"/>
	<path class="st2" d="M897.7-275.5L216.1,435.3c-20.1,21-53.5,21.7-74.5,1.6l0,0c-21-20.1-21.7-53.5-1.6-74.5l681.6-710.8
		c20.1-21,53.5-21.7,74.5-1.6l0,0C917.1-329.9,917.8-296.5,897.7-275.5z"/>
	<path class="st2" d="M1026.3-33.8L249.3,776.4c-20.1,21-53.5,21.7-74.5,1.6l0,0c-21-20.1-21.7-53.5-1.6-74.5l776.9-810.3
		c20.1-21,53.5-21.7,74.5-1.6v0C1045.7-88.2,1046.4-54.8,1026.3-33.8z"/>
</g>
<g>
	<g>
		<path class="st1" d="M34.6,31.5c-0.1-0.7-0.2-1.4-0.4-1.9c0,0-4.9-13.6-5-13.8l-1.9-5.9l-1.8-5.7c-0.3-1-1.4-1.6-2.4-1.1
			c-0.8,0.3-1.3,1.3-1,2.1l1.7,5.4l1.4,6.3c0.1,0.3-0.2,0.5-0.5,0.4c-0.3-0.1-0.6-0.4-0.7-0.7l-2.2-6.5l-3.5-8.6
			C18,0.7,17,0.3,16.1,0.6l-0.3,0.1c-0.9,0.4-1.3,1.3-1,2.2l3,8.7l1.9,6c0.1,0.2,0,0.4-0.2,0.5c-0.3,0.1-0.7,0.1-1,0
			c-0.1,0-0.2-0.1-0.2-0.2c-0.5-1.1-3.6-7.5-3.6-7.5L10.4,1C10,0.2,9-0.2,8.1,0.1L7.8,0.3c-0.9,0.4-1.3,1.4-1,2.3l3.7,9.6l3,7.1
			c0.2,0.4-0.4,0.9-0.8,1.1c-0.2,0.1-0.4,0-0.5-0.2L9.1,15L3.5,5.9C3.1,5.1,2.1,4.8,1.3,5.1L1.1,5.2C0.1,5.6-0.3,6.7,0.2,7.6L4.9,17
			l2.5,4.7c0.4,0.7,0.8,1.5,1.1,2.3l0.1,0.3l3.5,6.9c0.2,0.5-0.3,0.9-0.8,0.7l-3.6-1.5l-4.2-1.4c-1-0.3-2.2,0-2.8,0.9
			C0,31,0.3,32.4,1.3,33l3.6,2.2c0.1,0.1,0.2,0.1,0.3,0.2l4.4,3.8c1.5,1.3,3.2,2.2,5,2.9l3.5,1.3c1.3,0.5,2.8,0.5,4.1-0.1l5.2-2.2
			l2-0.9c1.8-0.8,3.3-2.1,4.2-3.8C34.5,35,34.8,33.3,34.6,31.5z M24.1,34.2c0,0.5-0.6,0.8-1,0.5l-3.5-2.9c-0.1-0.1-0.2-0.1-0.4-0.1
			l-1.9,0c-0.3,0-0.6-0.3-0.6-0.6l0-4.6c0-0.3,0.3-0.6,0.6-0.6l1.9,0c0.1,0,0.3,0,0.4-0.1l3.6-2.9c0.4-0.3,1,0,1,0.5L24.1,34.2z
			 M26.3,32.6c-0.1,0-0.2,0-0.3-0.1c-0.1-0.1-0.1-0.2-0.1-0.3c0-0.1,0-0.2,0.1-0.3c1.7-1.7,1.7-4.4,0-6.1c-0.2-0.2-0.2-0.5,0-0.7
			c0.1-0.1,0.2-0.1,0.3-0.1c0.1,0,0.2,0,0.3,0.1c1,1,1.5,2.3,1.5,3.7c0,1.4-0.5,2.7-1.5,3.7C26.6,32.6,26.5,32.6,26.3,32.6z
			 M28.2,34.1c-0.1,0.1-0.2,0.1-0.3,0.1c-0.1,0-0.2,0-0.3-0.1c-0.1-0.1-0.1-0.2-0.1-0.3c0-0.1,0-0.2,0.1-0.3
			c1.2-1.2,1.9-2.9,1.9-4.6c0-1.8-0.7-3.4-1.9-4.6c-0.1-0.1-0.1-0.2-0.1-0.3s0-0.2,0.1-0.3c0.1-0.1,0.2-0.1,0.3-0.1
			c0.1,0,0.2,0,0.3,0.1c1.4,1.4,2.2,3.3,2.2,5.3C30.4,30.8,29.7,32.6,28.2,34.1z"/>
	</g>
</g>
<g>
	<path class="st1" d="M46.4,14.3h2l4.1,14.3l5.7-14.3h0.4l5.6,14.3l4.1-14.3h2l-5.7,19.9h-0.4l-5.9-15.1l-6,15.1H52L46.4,14.3z"/>
	<path class="st1" d="M84.9,29.3l1.6,0.8c-0.5,1-1.1,1.9-1.8,2.5c-0.7,0.6-1.5,1.1-2.3,1.4c-0.9,0.3-1.8,0.5-2.9,0.5
		c-2.4,0-4.3-0.8-5.6-2.4c-1.4-1.6-2-3.4-2-5.3c0-1.9,0.6-3.5,1.7-5c1.5-1.9,3.4-2.8,5.8-2.8c2.5,0,4.5,1,6,2.9c1.1,1.3,1.6,3,1.6,5
		H73.8c0,1.7,0.6,3.1,1.6,4.2c1.1,1.1,2.4,1.6,3.9,1.6c0.8,0,1.5-0.1,2.2-0.4c0.7-0.3,1.3-0.6,1.8-1C83.8,31,84.3,30.3,84.9,29.3z
		 M84.9,25.4c-0.3-1-0.6-1.8-1.1-2.4s-1.1-1.1-1.9-1.5c-0.8-0.4-1.6-0.6-2.5-0.6c-1.4,0-2.7,0.5-3.7,1.4c-0.8,0.7-1.3,1.7-1.7,3
		H84.9z"/>
	<path class="st1" d="M98.6,14.3h2v8.4h10.1v-8.4h2v19.9h-2v-9.6h-10.1v9.6h-2V14.3z"/>
	<path class="st1" d="M129.1,29.3l1.6,0.8c-0.5,1-1.1,1.9-1.8,2.5c-0.7,0.6-1.5,1.1-2.3,1.4c-0.9,0.3-1.8,0.5-2.9,0.5
		c-2.4,0-4.3-0.8-5.6-2.4c-1.4-1.6-2-3.4-2-5.3c0-1.9,0.6-3.5,1.7-5c1.5-1.9,3.4-2.8,5.8-2.8c2.5,0,4.5,1,6,2.9c1.1,1.3,1.6,3,1.6,5
		h-13.3c0,1.7,0.6,3.1,1.6,4.2c1.1,1.1,2.4,1.6,3.9,1.6c0.8,0,1.5-0.1,2.2-0.4c0.7-0.3,1.3-0.6,1.8-1C128,31,128.5,30.3,129.1,29.3z
		 M129.1,25.4c-0.3-1-0.6-1.8-1.1-2.4c-0.5-0.6-1.1-1.1-1.9-1.5c-0.8-0.4-1.6-0.6-2.5-0.6c-1.4,0-2.7,0.5-3.7,1.4
		c-0.8,0.7-1.3,1.7-1.7,3H129.1z"/>
	<path class="st1" d="M148.8,19.5v14.7h-1.9v-2.5c-0.8,1-1.7,1.7-2.7,2.2c-1,0.5-2.1,0.7-3.2,0.7c-2.1,0-3.9-0.8-5.3-2.3
		c-1.5-1.5-2.2-3.3-2.2-5.5c0-2.1,0.7-3.9,2.2-5.4c1.5-1.5,3.3-2.3,5.4-2.3c1.2,0,2.3,0.3,3.3,0.8c1,0.5,1.8,1.3,2.6,2.3v-2.7H148.8
		z M141.2,21c-1.1,0-2,0.3-2.9,0.8c-0.9,0.5-1.6,1.2-2.1,2.2c-0.5,0.9-0.8,1.9-0.8,3c0,1,0.3,2,0.8,3s1.2,1.7,2.1,2.2
		c0.9,0.5,1.9,0.8,2.9,0.8c1,0,2-0.3,2.9-0.8c0.9-0.5,1.6-1.2,2.1-2.1c0.5-0.9,0.8-1.9,0.8-3c0-1.7-0.6-3.1-1.7-4.3
		S142.9,21,141.2,21z"/>
	<path class="st1" d="M152.4,19.5h1.9v2.2c0.6-0.8,1.2-1.5,1.8-1.9c0.6-0.4,1.3-0.6,2-0.6c0.5,0,1.1,0.2,1.7,0.5l-1,1.6
		c-0.4-0.2-0.7-0.3-1-0.3c-0.6,0-1.2,0.3-1.8,0.8c-0.6,0.5-1,1.3-1.3,2.4c-0.2,0.8-0.4,2.5-0.4,5.1v5h-1.9V19.5z"/>
	<path class="st1" d="M167.8,14.3h2.3l5.1,8.2l5-8.2h2.3l-6.3,10.4v9.5h-2v-9.5L167.8,14.3z"/>
	<path class="st1" d="M190,19.1c2.3,0,4.1,0.8,5.6,2.5c1.4,1.5,2,3.3,2,5.3c0,2.1-0.7,3.9-2.1,5.4c-1.4,1.5-3.3,2.3-5.5,2.3
		c-2.3,0-4.1-0.8-5.5-2.3c-1.4-1.5-2.1-3.3-2.1-5.4c0-2,0.7-3.8,2-5.3C185.8,20,187.7,19.1,190,19.1z M190,21
		c-1.6,0-2.9,0.6-4.1,1.7s-1.7,2.6-1.7,4.2c0,1.1,0.3,2.1,0.8,3s1.2,1.6,2.1,2.1c0.9,0.5,1.8,0.8,2.9,0.8c1,0,2-0.2,2.9-0.8
		c0.9-0.5,1.6-1.2,2.1-2.1c0.5-0.9,0.8-1.9,0.8-3c0-1.7-0.6-3.1-1.7-4.2C192.9,21.6,191.6,21,190,21z"/>
	<path class="st1" d="M200.9,19.5h1.9v6.9c0,1.7,0.1,2.8,0.3,3.5c0.3,0.9,0.8,1.6,1.6,2.1c0.8,0.5,1.7,0.8,2.7,0.8
		c1.1,0,2-0.3,2.7-0.8c0.7-0.5,1.2-1.2,1.5-2c0.2-0.6,0.3-1.8,0.3-3.6v-6.9h1.9v7.2c0,2-0.2,3.6-0.7,4.6c-0.5,1-1.2,1.8-2.1,2.4
		c-1,0.6-2.1,0.9-3.6,0.9s-2.6-0.3-3.6-0.9s-1.7-1.4-2.2-2.4c-0.5-1-0.7-2.6-0.7-4.7V19.5z"/>
</g>
</svg>
